<svg width="334" height="334" viewBox="0 0 334 334" fill="none" xmlns="http://www.w3.org/2000/svg">
<path d="M95.7821 3.79517L95.8125 3.82554L95.858 3.88626L96.0402 4.08363C97.0122 5.1749 97.9588 6.28853 98.8792 7.42363C100.777 9.73127 103.464 13.0865 106.713 17.4133C115.608 29.2968 123.814 41.6802 131.292 54.5025C146.219 79.909 158.199 106.935 167 135.057C175.801 106.935 187.781 79.909 202.708 54.5025C210.185 41.6799 218.392 29.2966 227.287 17.4133C230.708 12.8623 234.267 8.41702 237.96 4.08363L238.142 3.88626L238.188 3.82554L238.203 3.81035L238.218 3.79517C239.755 2.07646 241.778 0.865033 244.019 0.321192C246.26 -0.222648 248.613 -0.0732724 250.768 0.749557C252.922 1.57239 254.775 3.02989 256.083 4.9292C257.391 6.82851 258.091 9.08012 258.091 11.3861V153.549C264.726 138.635 272.957 124.484 282.64 111.343C289.478 102.023 297.285 93.4529 305.929 85.7771C309.039 83.0545 312.309 80.5197 315.721 78.1861L316.389 77.7459L316.617 77.6092L316.693 77.5637L316.723 77.5485H316.738C318.466 76.5132 320.437 75.9541 322.451 75.9281C324.465 75.9022 326.45 76.4102 328.204 77.4005C329.958 78.3909 331.419 79.8282 332.437 81.5663C333.455 83.3043 333.994 85.281 334 87.2952V277.068C334 292.167 328.002 306.648 317.325 317.325C306.648 328.002 292.167 334 277.068 334H56.9318C41.8326 334 27.3517 328.002 16.6749 317.325C5.99816 306.648 0 292.167 0 277.068V87.2952C0.000114904 85.2801 0.535003 83.3012 1.55004 81.5604C2.56509 79.8196 4.02392 78.3794 5.77758 77.3868C7.53125 76.3941 9.51693 75.8847 11.5319 75.9105C13.5468 75.9362 15.5188 76.4962 17.2465 77.5333L17.2769 77.5485L17.3073 77.5637L17.3832 77.6092L17.6109 77.7611C18.6116 78.375 19.5842 79.0336 20.5258 79.7347C22.3932 81.1011 24.9741 83.0747 28.0712 85.7771C34.2654 91.197 42.5395 99.4863 51.3601 111.328C59.4975 122.259 68.0753 136.181 75.9091 153.549V11.3861C75.9091 9.08012 76.6094 6.82851 77.9171 4.9292C79.2248 3.02989 81.0783 1.57239 83.2325 0.749557C85.3867 -0.0732724 87.7399 -0.222648 89.9808 0.321192C92.2217 0.865033 94.2447 2.07646 95.7821 3.79517ZM22.7727 112.436V277.068C22.7727 286.128 26.3716 294.816 32.7777 301.222C39.1838 307.628 47.8723 311.227 56.9318 311.227H277.068C286.128 311.227 294.816 307.628 301.222 301.222C307.628 294.816 311.227 286.128 311.227 277.068V112.436C308.024 115.928 304.547 120.058 300.904 124.931C285.373 145.791 267.109 180.193 257.939 233.451C257.473 236.278 255.958 238.826 253.696 240.586C251.435 242.346 248.593 243.188 245.737 242.944C242.882 242.701 240.223 241.39 238.292 239.273C236.361 237.156 235.299 234.388 235.318 231.523V45.3934C231.295 51.375 226.892 58.2676 222.383 65.9951C204.818 96.0248 185.583 138.276 178.265 187.647C177.867 190.35 176.51 192.82 174.442 194.606C172.374 196.392 169.732 197.375 167 197.375C164.268 197.375 161.626 196.392 159.558 194.606C157.49 192.82 156.133 190.35 155.735 187.647C148.417 138.276 129.167 96.0248 111.632 65.9951C107.531 58.9948 103.212 52.1242 98.6818 45.3934V231.523C98.7011 234.388 97.6391 237.156 95.7078 239.273C93.7766 241.39 91.118 242.701 88.2627 242.944C85.4074 243.188 82.5653 242.346 80.3036 240.586C78.0419 238.826 76.5269 236.278 76.0609 233.451C66.8911 180.178 48.6274 145.791 33.0964 124.931C29.4527 120.073 25.9761 115.913 22.7727 112.436Z" fill="#0A0A0A"/>
</svg>
