<svg width="220" height="335" viewBox="0 0 220 335" fill="none" xmlns="http://www.w3.org/2000/svg">
<path d="M190.976 78.1384C172.649 47.0874 146.631 21.282 115.431 3.2105L109.88 0L104.33 3.2105C72.5983 21.5231 46.2498 47.8698 27.9351 79.5999C9.62036 111.33 -0.0144688 147.324 1.63087e-05 183.96C1.63087e-05 186.347 0.0415865 188.771 0.122646 191.165C1.22561 223.628 13.6401 250.944 36.0243 270.159C53.1534 284.864 75.1253 293.841 98.7981 295.982V334.272H120.968V156.911H98.7953V273.67C61.339 269.331 24.0594 242.871 22.2782 190.412C22.2047 188.267 22.1673 186.097 22.1673 183.96C22.2333 152.326 30.3123 121.224 45.6505 93.5569C60.9887 65.8898 83.0861 42.5594 109.88 25.7429C136.674 42.5597 158.771 65.8903 174.109 93.5574C189.446 121.224 197.525 152.326 197.591 183.96C197.591 186.097 197.553 188.267 197.48 190.412C196.055 232.378 171.91 257.703 143.133 268.379V291.842C158.066 287.61 171.914 280.214 183.736 270.157C206.121 250.942 218.535 223.627 219.638 191.165C219.719 188.77 219.761 186.346 219.761 183.959C219.781 146.749 209.842 110.212 190.976 78.1384Z" fill="#0A0A0A"/>
</svg>
