<svg width="300" height="335" viewBox="0 0 300 335" fill="none" xmlns="http://www.w3.org/2000/svg">
<path d="M93.6 315.328H206.187C209.307 315.328 211.952 314.429 214.123 312.632C216.282 310.835 217.842 308.614 218.803 305.969L240.384 219.942H59.4028L81.003 305.969C81.9639 308.614 83.5237 310.835 85.6825 312.632C87.8412 314.429 90.4804 315.328 93.6 315.328ZM93.6 334.045C86.3001 334.045 79.855 331.874 74.2647 327.531C68.6743 323.189 64.9121 317.524 62.9779 310.536L40.1049 219.942H259.682L236.828 310.536C234.881 317.274 231.113 322.877 225.522 327.344C219.932 331.812 213.487 334.045 206.187 334.045H93.6ZM32.206 201.225H268.33C272.161 201.225 275.28 200.027 277.689 197.631C280.084 195.222 281.282 192.221 281.282 188.628V156.583H19.2347V188.628C19.2347 192.221 20.495 195.216 23.0156 197.612C25.5363 200.02 28.6122 201.225 32.206 201.225ZM149.903 92.8678C149.903 69.5955 158.157 49.7048 174.666 33.1958C191.175 16.6868 211.103 5.76816 234.451 0.439859C235.773 0.127898 236.996 0.165334 238.119 0.552166C239.242 0.92652 240.309 1.58164 241.32 2.51752C242.331 3.45341 243.017 4.50784 243.379 5.68081C243.716 6.84131 243.728 8.08291 243.416 9.40563C238.3 30.2072 228.236 48.1138 213.225 63.1254C198.226 78.137 180.238 87.7891 159.262 92.0817V137.865H284.876C289.219 137.865 292.825 139.3 295.695 142.17C298.565 145.04 300 148.647 300 152.989V188.628C300 197.238 296.874 204.612 290.622 210.752C284.383 216.866 276.952 219.923 268.33 219.923H32.1873C23.5772 219.923 16.1462 216.866 9.89453 210.752C3.64282 204.6 0.516968 197.219 0.516968 188.609V152.97C0.516968 148.628 1.95199 145.022 4.82204 142.151C7.69208 139.281 11.2984 137.846 15.6409 137.846H140.544V92.0817C119.568 87.8016 101.574 78.1495 86.5622 63.1254C71.5506 48.1138 61.493 30.2072 56.3893 9.40563C56.0773 8.08291 56.096 6.83507 56.4454 5.6621C56.7823 4.5016 57.4562 3.45341 58.4669 2.51752C59.4777 1.58164 60.5446 0.92652 61.6677 0.552166C62.7907 0.165334 64.0136 0.127898 65.3363 0.439859C88.696 5.76816 108.63 16.6868 125.139 33.1958C141.648 49.7048 149.903 69.5955 149.903 92.8678Z" fill="#0A0A0A"/>
</svg>
